<?xml version="1.0" encoding="UTF-8"?>
<svg version="1.1" xmlns="http://www.w3.org/2000/svg" width="902" height="544">
<path d="M0 0 C0.72638672 -0.04576172 1.45277344 -0.09152344 2.20117188 -0.13867188 C10.52881855 -0.30802278 16.17379592 4.62063435 22.0168457 10.12866211 C23.39031616 11.48266337 24.75554483 12.84506555 26.11328125 14.21484375 C26.84572556 14.94441788 27.57816986 15.673992 28.33280945 16.42567444 C29.86659054 17.95742874 31.39664895 19.49291907 32.9230957 21.03198242 C35.25079577 23.37580128 37.59414594 25.70311104 39.93945312 28.02929688 C41.43585902 29.52768454 42.93133438 31.0270022 44.42578125 32.52734375 C45.12061111 33.21610092 45.81544098 33.90485809 46.53132629 34.61448669 C54.33026667 42.52665354 57.13994657 48.69112545 57.1171875 59.8203125 C56.96401793 62.90368252 56.57697385 65.42443896 55.75 68.375 C54.93570887 71.47623644 54.89336015 73.30524722 56.0625 76.3125 C58.3078659 80.17069178 58.3078659 80.17069178 61.9375 82.4375 C66.29355434 82.79455363 69.23720387 82.63758461 73.4375 81.4375 C80.69543802 79.36380342 87.23464484 80.07302924 93.9375 83.4375 C102.11505863 89.8555217 109.42940186 97.64849313 116.80737305 104.95727539 C118.10610738 106.23936138 119.41019586 107.51604551 120.71948242 108.78735352 C136.56201108 124.17560196 136.56201108 124.17560196 138.56640625 134.7578125 C138.4092408 141.39574149 137.43343559 145.75660466 133.9375 151.4375 C135.236875 151.499375 136.53625 151.56125 137.875 151.625 C143.34543853 152.19809356 147.36629088 154.5089003 151.9375 157.4375 C151.9375 158.0975 151.9375 158.7575 151.9375 159.4375 C152.5975 159.4375 153.2575 159.4375 153.9375 159.4375 C159.35918496 166.89415239 159.67277908 173.54541839 159.6015625 182.5625 C159.60493947 183.91813592 159.60979938 185.27376886 159.61605835 186.62939453 C159.62338862 189.45700181 159.61285135 192.28381404 159.58935547 195.11132812 C159.56086754 198.71260885 159.57729268 202.31202596 159.60721779 205.91323853 C159.62539694 208.70855426 159.61948497 211.50343741 159.60657883 214.29876709 C159.60168218 216.26445749 159.61670815 218.23016559 159.63223267 220.19580078 C159.53239461 227.87050881 158.49444436 233.17015871 153.9375 239.4375 C153.2775 239.4375 152.6175 239.4375 151.9375 239.4375 C151.9375 240.0975 151.9375 240.7575 151.9375 241.4375 C148.97373538 243.22035376 145.92254403 244.79296093 142.85546875 246.390625 C139.44396538 248.78370099 138.32691956 250.53720082 136.9375 254.4375 C136.78186859 256.96390997 136.78186859 256.96390997 137.25 259.3125 C137.36988281 260.09367187 137.48976563 260.87484375 137.61328125 261.6796875 C137.77376953 262.54980469 137.77376953 262.54980469 137.9375 263.4375 C138.5975 263.4375 139.2575 263.4375 139.9375 263.4375 C139.9375 264.0975 139.9375 264.7575 139.9375 265.4375 C140.66839844 265.71207031 141.39929688 265.98664063 142.15234375 266.26953125 C149.55563006 269.37413519 154.55944708 273.11838533 157.9375 280.4375 C158.2675 281.0975 158.5975 281.7575 158.9375 282.4375 C159.05428942 284.36024105 159.10721706 286.28698918 159.13037109 288.21313477 C159.15446548 290.03126427 159.15446548 290.03126427 159.17904663 291.88612366 C159.22350066 297.4518314 159.26503078 303.01740864 159.28759766 308.58325195 C159.30089196 311.51553864 159.32865704 314.44712195 159.36962891 317.37915039 C159.41921937 320.92826683 159.44375155 324.47674939 159.45082474 328.02619743 C159.4607225 330.02303009 159.4949088 332.01969535 159.52963257 334.01625061 C159.51171385 341.77559219 158.58286148 347.11530238 153.9375 353.4375 C153.2775 353.4375 152.6175 353.4375 151.9375 353.4375 C151.9375 354.0975 151.9375 354.7575 151.9375 355.4375 C144.60268746 360.69396698 138.31018137 361.15174366 129.46362305 361.07241821 C128.10932463 361.07818727 126.75503406 361.08613364 125.4007597 361.09605443 C121.69853777 361.11684407 117.99696384 361.10664916 114.2947402 361.09112334 C110.29464518 361.07978114 106.29465931 361.09728671 102.29458618 361.11102295 C94.46607983 361.13322939 86.63781347 361.12846579 78.8092978 361.11395974 C72.44562963 361.10265727 66.08202861 361.10114096 59.71835327 361.10657883 C58.35860241 361.10772807 58.35860241 361.10772807 56.97138184 361.10890054 C55.12971121 361.1104992 53.2880406 361.11212027 51.44637001 361.1137635 C34.18629437 361.1280134 16.92635163 361.11164019 -0.33370221 361.08476166 C-15.13627165 361.06242357 -29.93864503 361.06630391 -44.74121094 361.08935547 C-61.94048254 361.11612689 -79.13963774 361.12664017 -96.33892727 361.11129415 C-98.17373592 361.10970144 -100.00854459 361.10812959 -101.84335327 361.10657883 C-102.74606014 361.10580745 -103.64876701 361.10503607 -104.57882863 361.10424132 C-110.93316562 361.09992835 -117.28742862 361.10720219 -123.64175415 361.11897659 C-131.38802946 361.13301504 -139.13405152 361.12917346 -146.8802979 361.10257287 C-150.83088697 361.08945266 -154.78105413 361.08425127 -158.73163986 361.10081863 C-162.35147365 361.1157691 -165.97049636 361.10744758 -169.59025705 361.08093087 C-171.51282088 361.07274112 -173.43544145 361.08897829 -175.35794544 361.10621703 C-182.84992686 361.02163478 -187.92808918 359.83370341 -194.0625 355.4375 C-194.0625 354.7775 -194.0625 354.1175 -194.0625 353.4375 C-194.7225 353.4375 -195.3825 353.4375 -196.0625 353.4375 C-201.53153081 345.95196242 -201.77128094 339.264128 -201.65625 330.20703125 C-201.65453513 328.84421393 -201.6546084 327.48139331 -201.65637207 326.11857605 C-201.6547281 323.27835033 -201.63619717 320.43892281 -201.60449219 317.59887695 C-201.56470231 313.97075386 -201.56046568 310.34366742 -201.56795502 306.71536732 C-201.57103271 303.90734978 -201.55887792 301.09956248 -201.54182434 298.29160118 C-201.5314487 296.30752764 -201.53094777 294.32341033 -201.53063965 292.33930969 C-201.50677185 290.52163338 -201.50677185 290.52163338 -201.48242188 288.66723633 C-201.47400269 287.6062825 -201.4655835 286.54532867 -201.45690918 285.45222473 C-200.7355107 279.93810905 -197.89952743 275.37291274 -194.0625 271.4375 C-185.26915083 265.4375 -185.26915083 265.4375 -182.0625 265.4375 C-182.0625 264.7775 -182.0625 264.1175 -182.0625 263.4375 C-181.4025 263.4375 -180.7425 263.4375 -180.0625 263.4375 C-179.15819497 258.75155574 -178.42025009 254.6623604 -180.5625 250.171875 C-183.49329366 246.78314483 -187.61432286 244.95452659 -191.54296875 242.91796875 C-192.37441406 242.42941406 -193.20585937 241.94085938 -194.0625 241.4375 C-194.0625 240.7775 -194.0625 240.1175 -194.0625 239.4375 C-194.7225 239.4375 -195.3825 239.4375 -196.0625 239.4375 C-201.48418496 231.98084761 -201.79777908 225.32958161 -201.7265625 216.3125 C-201.72993947 214.95686408 -201.73479938 213.60123114 -201.74105835 212.24560547 C-201.74838862 209.41799819 -201.73785135 206.59118596 -201.71435547 203.76367188 C-201.68586754 200.16239115 -201.70229268 196.56297404 -201.73221779 192.96176147 C-201.75039694 190.16644574 -201.74448497 187.37156259 -201.73157883 184.57623291 C-201.72668218 182.61054251 -201.74170815 180.64483441 -201.75723267 178.67919922 C-201.65739461 171.00449119 -200.61944436 165.70484129 -196.0625 159.4375 C-195.4025 159.4375 -194.7425 159.4375 -194.0625 159.4375 C-193.7325 158.4475 -193.4025 157.4575 -193.0625 156.4375 C-188.18112732 152.56965897 -183.35356714 152.15616254 -177.33987433 152.4178564 C-168.29464987 152.77576024 -161.76542069 151.98664195 -154.92127991 145.80143738 C-152.27588085 143.28116015 -149.77486459 140.64743335 -147.27368164 137.98510742 C-145.84794463 136.54850895 -144.41750165 135.11656818 -142.98280334 133.68891907 C-139.13386894 129.83325143 -135.35267259 125.91698072 -131.58070683 121.98618484 C-127.60871055 117.87073232 -123.5749406 113.81673962 -119.54722595 109.75593567 C-111.93844954 102.06667971 -104.38350742 94.32680827 -96.84801525 86.56578952 C-85.7803056 75.17191238 -74.62981971 63.85948687 -63.48289394 52.54319477 C-61.83591753 50.87090705 -60.1889855 49.19857561 -58.542099 47.52619934 C-57.7379169 46.70971194 -56.9337348 45.89322454 -56.10518354 45.0519951 C-51.33644886 40.20682561 -46.58211879 35.34806046 -41.84054959 30.47630537 C-38.89313471 27.44907256 -35.94010572 24.42735153 -32.98641014 21.40624809 C-31.62064435 20.00616584 -30.25764689 18.60337683 -28.89766693 17.1976738 C-27.03846062 15.27628761 -25.16987222 13.36449826 -23.29896545 11.45451355 C-22.76628353 10.89876858 -22.2336016 10.34302362 -21.6847778 9.7704379 C-15.34189388 3.34059448 -9.05572277 0.22465009 0 0 Z M-3.06207275 23.83580017 C-3.76378601 24.54861649 -4.46549927 25.2614328 -5.18847656 25.99584961 C-5.98900452 26.79675522 -6.78953247 27.59766083 -7.61431885 28.4228363 C-8.46862488 29.30294876 -9.32293091 30.18306122 -10.203125 31.08984375 C-11.08530701 31.97910049 -11.96748901 32.86835724 -12.87640381 33.78456116 C-15.22001513 36.15146017 -17.55220455 38.52857584 -19.87963867 40.91131592 C-22.2570203 43.33983818 -24.64861328 45.75427356 -27.0390625 48.16992188 C-31.72678666 52.91287064 -36.39996397 57.66979506 -41.0625 62.4375 C-29.39119356 76.13175326 -17.27495879 89.41581995 -4.90200043 102.47798824 C-0.27425483 107.37065143 4.28599132 112.30146629 8.73193359 117.3605957 C31.23514514 143.70915637 31.23514514 143.70915637 62.66015625 155.10595703 C84.08982717 156.84856416 84.08982717 156.84856416 103.72446442 151.00048733 C105.14187159 149.50391545 105.14187159 149.50391545 104.9375 147.4375 C105.5975 147.4375 106.2575 147.4375 106.9375 147.4375 C106.9375 146.7775 106.9375 146.1175 106.9375 145.4375 C107.5975 145.4375 108.2575 145.4375 108.9375 145.4375 C110.60416667 144.10416667 110.60416667 144.10416667 111.9375 142.4375 C111.9375 141.7775 111.9375 141.1175 111.9375 140.4375 C112.5975 140.4375 113.2575 140.4375 113.9375 140.4375 C114.68724807 138.61649339 114.68724807 138.61649339 114.9375 136.4375 C113.95777817 134.64590805 113.95777817 134.64590805 112.2734375 133.00390625 C111.62342773 132.3092627 110.97341797 131.61461914 110.30371094 130.89892578 C109.13243652 129.68052002 109.13243652 129.68052002 107.9375 128.4375 C107.00914787 127.4375129 106.08248878 126.43595227 105.15722656 125.43310547 C102.54888403 122.61848364 99.89645527 119.85031732 97.22265625 117.09790039 C96.10951735 115.94269139 95.00636138 114.77778483 93.91308594 113.60375977 C88.0400873 106.78101058 88.0400873 106.78101058 80.31274414 102.89208984 C78.00192664 103.13890167 76.109605 103.6300907 73.9375 104.4375 C64.47678267 105.94674294 54.86860456 105.12499781 46.58984375 99.78125 C38.12766015 92.89947421 33.48595915 84.83570384 32 74.0625 C31.59781301 68.69747734 32.94715044 64.41337391 34.9296875 59.45703125 C34.94064827 55.22069534 33.19193215 53.81271389 30.33007812 50.82641602 C29.14575195 49.64390259 29.14575195 49.64390259 27.9375 48.4375 C26.98209573 47.45071122 26.02842672 46.46224044 25.07617188 45.47241211 C22.39091898 42.69312137 19.67589591 39.94515951 16.94799805 37.20776367 C15.23608839 35.48600838 13.53513073 33.75386681 11.83398438 32.02148438 C10.74024048 30.92122135 9.64586229 29.82158843 8.55078125 28.72265625 C7.79442131 27.94777611 7.79442131 27.94777611 7.02278137 27.15724182 C2.50164301 22.43968562 2.50164301 22.43968562 -3.06207275 23.83580017 Z M-59.43304634 80.55915737 C-59.96215551 81.08881131 -60.49126469 81.61846525 -61.03640747 82.16416931 C-61.64497589 82.76854324 -62.25354431 83.37291718 -62.8805542 83.99560547 C-63.87964813 85.00312866 -63.87964813 85.00312866 -64.89892578 86.03100586 C-65.60147491 86.73165665 -66.30402405 87.43230743 -67.02786255 88.15419006 C-69.35943378 90.48204273 -71.68370362 92.81704249 -74.0078125 95.15234375 C-75.61884755 96.76457003 -77.23025146 98.3764278 -78.8420105 99.9879303 C-82.22281215 103.37029866 -85.60021857 106.75600946 -88.97509766 110.14428711 C-93.31265688 114.4988432 -97.6567768 118.84678052 -102.00322151 123.19246578 C-105.33193933 126.52145483 -108.65804958 129.85303863 -111.98327255 133.18551826 C-113.58474123 134.79018085 -115.18682667 136.39422813 -116.78952408 137.9976635 C-119.02383825 140.23413324 -121.2548352 142.47385719 -123.48486328 144.71459961 C-124.49002991 145.71908646 -124.49002991 145.71908646 -125.51550293 146.74386597 C-128.58550838 149.21267182 -128.58550838 149.21267182 -130.0625 152.4375 C-82.2125 152.4375 -34.3625 152.4375 14.9375 152.4375 C14.6075 151.4475 14.2775 150.4575 13.9375 149.4375 C13.2775 149.4375 12.6175 149.4375 11.9375 149.4375 C11.9375 148.7775 11.9375 148.1175 11.9375 147.4375 C11.2775 147.4375 10.6175 147.4375 9.9375 147.4375 C9.6075 146.4475 9.2775 145.4575 8.9375 144.4375 C8.2775 144.4375 7.6175 144.4375 6.9375 144.4375 C6.9375 143.7775 6.9375 143.1175 6.9375 142.4375 C6.2775 142.4375 5.6175 142.4375 4.9375 142.4375 C4.9375 141.7775 4.9375 141.1175 4.9375 140.4375 C4.2775 140.4375 3.6175 140.4375 2.9375 140.4375 C2.6075 139.4475 2.2775 138.4575 1.9375 137.4375 C1.2775 137.4375 0.6175 137.4375 -0.0625 137.4375 C-0.0625 136.7775 -0.0625 136.1175 -0.0625 135.4375 C-0.7225 135.4375 -1.3825 135.4375 -2.0625 135.4375 C-2.0625 134.7775 -2.0625 134.1175 -2.0625 133.4375 C-2.7225 133.4375 -3.3825 133.4375 -4.0625 133.4375 C-4.3925 132.4475 -4.7225 131.4575 -5.0625 130.4375 C-5.7225 130.4375 -6.3825 130.4375 -7.0625 130.4375 C-7.0625 129.7775 -7.0625 129.1175 -7.0625 128.4375 C-7.7225 128.4375 -8.3825 128.4375 -9.0625 128.4375 C-9.4646875 127.4784375 -9.4646875 127.4784375 -9.875 126.5 C-10.94917752 124.10618314 -10.94917752 124.10618314 -14.0625 123.4375 C-14.0625 122.7775 -14.0625 122.1175 -14.0625 121.4375 C-14.7225 121.4375 -15.3825 121.4375 -16.0625 121.4375 C-16.3925 120.4475 -16.7225 119.4575 -17.0625 118.4375 C-17.7225 118.4375 -18.3825 118.4375 -19.0625 118.4375 C-19.0625 117.7775 -19.0625 117.1175 -19.0625 116.4375 C-19.7225 116.4375 -20.3825 116.4375 -21.0625 116.4375 C-21.0625 115.7775 -21.0625 115.1175 -21.0625 114.4375 C-21.7225 114.4375 -22.3825 114.4375 -23.0625 114.4375 C-23.3925 113.4475 -23.7225 112.4575 -24.0625 111.4375 C-24.7225 111.4375 -25.3825 111.4375 -26.0625 111.4375 C-26.0625 110.7775 -26.0625 110.1175 -26.0625 109.4375 C-26.7225 109.4375 -27.3825 109.4375 -28.0625 109.4375 C-28.0625 108.7775 -28.0625 108.1175 -28.0625 107.4375 C-28.7225 107.4375 -29.3825 107.4375 -30.0625 107.4375 C-30.5575 105.9525 -30.5575 105.9525 -31.0625 104.4375 C-31.7225 104.4375 -32.3825 104.4375 -33.0625 104.4375 C-33.0625 103.7775 -33.0625 103.1175 -33.0625 102.4375 C-33.7225 102.4375 -34.3825 102.4375 -35.0625 102.4375 C-35.5575 100.9525 -35.5575 100.9525 -36.0625 99.4375 C-36.7225 99.4375 -37.3825 99.4375 -38.0625 99.4375 C-38.0625 98.7775 -38.0625 98.1175 -38.0625 97.4375 C-38.7225 97.4375 -39.3825 97.4375 -40.0625 97.4375 C-40.0625 96.7775 -40.0625 96.1175 -40.0625 95.4375 C-40.7225 95.4375 -41.3825 95.4375 -42.0625 95.4375 C-42.5575 93.9525 -42.5575 93.9525 -43.0625 92.4375 C-43.7225 92.4375 -44.3825 92.4375 -45.0625 92.4375 C-45.0625 91.7775 -45.0625 91.1175 -45.0625 90.4375 C-45.7225 90.4375 -46.3825 90.4375 -47.0625 90.4375 C-47.0625 89.7775 -47.0625 89.1175 -47.0625 88.4375 C-47.7225 88.4375 -48.3825 88.4375 -49.0625 88.4375 C-49.5575 86.9525 -49.5575 86.9525 -50.0625 85.4375 C-50.7225 85.4375 -51.3825 85.4375 -52.0625 85.4375 C-52.0625 84.7775 -52.0625 84.1175 -52.0625 83.4375 C-52.7225 83.4375 -53.3825 83.4375 -54.0625 83.4375 C-55.0525 81.4575 -55.0525 81.4575 -56.0625 79.4375 C-58.09971206 79.22638677 -58.09971206 79.22638677 -59.43304634 80.55915737 Z M-179.0625 175.4375 C-179.20748801 176.90801179 -179.28514405 178.38525014 -179.3347168 179.86206055 C-179.36691818 180.80361496 -179.39911957 181.74516937 -179.43229675 182.71525574 C-179.54278462 187.04028805 -179.62537149 191.36516457 -179.68725586 195.69116211 C-179.72892992 197.97188466 -179.79031105 200.2523361 -179.87182617 202.53198242 C-179.98746666 205.81784124 -180.03750124 209.09914362 -180.07421875 212.38671875 C-180.12269455 213.40255539 -180.17117035 214.41839203 -180.22111511 215.4650116 C-180.21343647 218.43820963 -180.1009667 220.64706857 -179.0625 223.4375 C-175.23116787 226.90709653 -170.92491033 228.81669656 -166.0625 230.4375 C-165.03125 232.2578125 -165.03125 232.2578125 -164.0625 234.4375 C-162.82867388 236.39105802 -161.55929521 238.31732673 -160.28125 240.2421875 C-157.40331567 245.42615895 -156.67355929 250.39072144 -156.6875 256.25 C-156.68911133 256.95560059 -156.69072266 257.66120117 -156.69238281 258.38818359 C-156.89454267 267.00772515 -160.32087457 272.57031834 -165.0625 279.4375 C-165.3925 280.4275 -165.7225 281.4175 -166.0625 282.4375 C-167.70284193 283.16654086 -169.37551918 283.82405243 -171.0625 284.4375 C-173.81045903 286.0077623 -176.42839335 287.6814289 -179.0625 289.4375 C-179.50660705 291.56568549 -179.50660705 291.56568549 -179.41894531 294.05493164 C-179.42194641 295.01254898 -179.42494751 295.97016632 -179.42803955 296.95680237 C-179.41569275 297.99328415 -179.40334595 299.02976593 -179.390625 300.09765625 C-179.38875183 301.15786484 -179.38687866 302.21807343 -179.38494873 303.31040955 C-179.37821839 305.55405822 -179.36428459 307.79769497 -179.34375 310.04125977 C-179.31259753 313.48920501 -179.30278134 316.93669363 -179.296875 320.38476562 C-179.28770545 322.55990145 -179.27732983 324.73503259 -179.265625 326.91015625 C-179.26137512 327.94866226 -179.25712524 328.98716827 -179.25274658 330.05714417 C-179.24313904 331.01160934 -179.23353149 331.96607452 -179.22363281 332.94946289 C-179.21680481 333.79392471 -179.20997681 334.63838654 -179.20294189 335.50843811 C-179.27332923 337.44463627 -179.27332923 337.44463627 -178.0625 338.4375 C-174.96535742 338.53554809 -171.89049884 338.56740642 -168.79295349 338.55775452 C-167.80796295 338.55860894 -166.8229724 338.55946337 -165.80813366 338.56034368 C-162.48071365 338.56200147 -159.15334316 338.55647225 -155.82592773 338.55102539 C-153.4514262 338.55074356 -151.07692458 338.55090118 -148.7024231 338.5514679 C-142.9065998 338.55172605 -137.11079294 338.54737473 -131.31497341 338.54103024 C-124.57347875 338.5338963 -117.83198647 338.53238635 -111.09048856 338.53124207 C-99.06723954 338.52905123 -87.04399729 338.52239027 -75.02075195 338.51293945 C-63.33846063 338.50376616 -51.65617115 338.49669638 -39.97387695 338.49243164 C-39.24692672 338.49216364 -38.51997649 338.49189565 -37.77099746 338.49161953 C-31.44798151 338.48930681 -25.12496551 338.48715395 -18.8019495 338.48501682 C8.44454004 338.47560026 35.69101164 338.45568183 62.9375 338.4375 C62.9375 284.3175 62.9375 230.1975 62.9375 174.4375 C20.12793061 174.40838662 20.12793061 174.40838662 -22.68164062 174.38867188 C-28.44571943 174.38671387 -34.20979821 174.38469334 -39.97387695 174.38256836 C-41.05759633 174.38217274 -41.05759633 174.38217274 -42.16320902 174.38176912 C-53.84229213 174.37741433 -65.52137034 174.3695275 -77.20045053 174.3603472 C-89.17745649 174.35101092 -101.15445987 174.34544445 -113.13146931 174.34341151 C-119.86250169 174.34215994 -126.59352383 174.33913818 -133.32455254 174.33176994 C-139.65192067 174.32501395 -145.97927304 174.32288217 -152.30664444 174.32439232 C-154.63637058 174.3241158 -156.96609721 174.32210819 -159.29582024 174.31829453 C-162.46155111 174.31336385 -165.62722139 174.31449939 -168.79295349 174.31724548 C-169.72775919 174.31433264 -170.66256489 174.3114198 -171.62569803 174.30841869 C-175.6644972 173.9079142 -175.6644972 173.9079142 -179.0625 175.4375 Z M85.9375 174.4375 C85.9375 228.5575 85.9375 282.6775 85.9375 338.4375 C102.4375 338.4375 118.9375 338.4375 135.9375 338.4375 C137.51882245 336.85617755 137.13599747 335.20909521 137.2097168 333.01293945 C137.25801888 331.60060783 137.25801888 331.60060783 137.30729675 330.15974426 C137.41778462 325.83471195 137.50037149 321.50983543 137.56225586 317.18383789 C137.60392992 314.90311534 137.66531105 312.6226639 137.74682617 310.34301758 C137.86246666 307.05715876 137.91250124 303.77585638 137.94921875 300.48828125 C137.99769455 299.47244461 138.04617035 298.45660797 138.09611511 297.4099884 C138.08843647 294.43679037 137.9759667 292.22793143 136.9375 289.4375 C133.10616787 285.96790347 128.79991033 284.05830344 123.9375 282.4375 C122.90625 280.6171875 122.90625 280.6171875 121.9375 278.4375 C120.70367388 276.48394198 119.43429521 274.55767327 118.15625 272.6328125 C115.27831567 267.44884105 114.54855929 262.48427856 114.5625 256.625 C114.56411133 255.91939941 114.56572266 255.21379883 114.56738281 254.48681641 C114.76954267 245.86727485 118.19587457 240.30468166 122.9375 233.4375 C123.2675 232.4475 123.5975 231.4575 123.9375 230.4375 C125.703125 229.4140625 125.703125 229.4140625 127.9375 228.4375 C129.52503149 227.57014008 131.1083239 226.69498076 132.6875 225.8125 C133.48671875 225.36648438 134.2859375 224.92046875 135.109375 224.4609375 C135.71265625 224.12320313 136.3159375 223.78546875 136.9375 223.4375 C136.9627689 216.61988106 136.98033244 209.80227411 136.99243164 202.98461914 C136.99747333 200.66332549 137.00430651 198.34203503 137.01293945 196.02075195 C137.02501225 192.69221205 137.03072979 189.36371398 137.03515625 186.03515625 C137.04031754 184.99037613 137.04547882 183.94559601 137.05079651 182.86915588 C137.05087204 181.90823532 137.05094757 180.94731476 137.05102539 179.95727539 C137.053246 179.10678116 137.05546661 178.25628693 137.05775452 177.38002014 C137.15230284 175.43161455 137.15230284 175.43161455 135.9375 174.4375 C119.4375 174.4375 102.9375 174.4375 85.9375 174.4375 Z " fill="#FEDF62" transform="translate(468.0625,171.5625)"/>
<path d="M0 0 C9.57 3.3 19.14 6.6 29 10 C28.311603 14.13038203 27.67073021 17.33406029 26.32592773 21.17919922 C25.98565048 22.15976288 25.64537323 23.14032654 25.29478455 24.15060425 C24.92809158 25.19145172 24.56139862 26.23229919 24.18359375 27.3046875 C23.80767593 28.38380402 23.43175812 29.46292053 23.04444885 30.57473755 C21.84666746 34.00976154 20.64218152 37.44239061 19.4375 40.875 C18.62260313 43.2081784 17.80814494 45.54151006 16.99414062 47.875 C15.00117436 53.58511935 13.00270315 59.29328887 11 65 C16.26591321 62.4435446 21.41969645 59.94006174 26.21875 56.5625 C27.52392578 55.68658203 27.52392578 55.68658203 28.85546875 54.79296875 C30.63313356 53.58772776 32.39616249 52.36064035 34.14453125 51.11328125 C40.50728567 46.91857648 40.50728567 46.91857648 44.42138672 47.13208008 C47.06077837 47.89721009 49.48234747 48.89881343 52 50 C54.14474291 50.76435343 56.29342665 51.51771229 58.4453125 52.26171875 C60.67286902 53.06757008 62.8994224 53.87619933 65.125 54.6875 C66.27226563 55.10322266 67.41953125 55.51894531 68.6015625 55.94726562 C71.40193865 56.96240198 74.20138366 57.98002429 77 59 C73.91979877 62.30268256 70.28080191 64.12040884 66.3046875 66.16015625 C65.55663849 66.55069687 64.80858948 66.94123749 64.03787231 67.34361267 C60.84192889 69.01198163 57.63923816 70.66721759 54.43701172 72.32348633 C52.09879101 73.53523901 49.76417748 74.75373607 47.4296875 75.97265625 C46.33598343 76.53364769 46.33598343 76.53364769 45.22018433 77.10597229 C41.46875281 78.8611711 41.46875281 78.8611711 39 82 C39.32149768 84.3085002 39.32149768 84.3085002 39.98803711 86.96875 C40.22836166 88.00322266 40.46868622 89.03769531 40.71629333 90.10351562 C41.11776329 91.78477539 41.11776329 91.78477539 41.52734375 93.5 C41.79511124 94.64662109 42.06287872 95.79324219 42.33876038 96.97460938 C43.19849921 100.65130127 44.06758722 104.3257032 44.9375 108 C45.80222326 111.67465434 46.66500342 115.34975079 47.52552795 119.02539062 C48.06245702 121.31641676 48.60213886 123.60679974 49.14476013 125.89648438 C49.38823685 126.93095703 49.63171356 127.96542969 49.88256836 129.03125 C50.20686073 130.40120117 50.20686073 130.40120117 50.53770447 131.79882812 C51 134 51 134 51 136 C50.31156006 135.86182861 49.62312012 135.72365723 48.91381836 135.58129883 C46.90010904 135.1795693 44.88376458 134.79090691 42.86547852 134.4128418 C33.8503997 132.56765761 24.48119549 130.5887381 17 125 C11.45833938 115.94982953 11 104.39523047 11 94 C10.22914063 94.3609375 9.45828125 94.721875 8.6640625 95.09375 C7.15972656 95.78984375 7.15972656 95.78984375 5.625 96.5 C4.12839844 97.19609375 4.12839844 97.19609375 2.6015625 97.90625 C0 99 0 99 -2 99 C-2.33 100.65 -2.66 102.3 -3 104 C-4.32 107.96 -5.64 111.92 -7 116 C-16.9 112.7 -26.8 109.4 -37 106 C-33.62495832 93.62484718 -33.62495832 93.62484718 -31.92211914 88.78295898 C-31.54025955 87.69121368 -31.15839996 86.59946838 -30.76496887 85.47463989 C-30.35913071 84.32671967 -29.95329254 83.17879944 -29.53515625 81.99609375 C-29.10518845 80.77018524 -28.67522064 79.54427673 -28.23222351 78.28121948 C-27.08297529 75.00486231 -25.92906917 71.73016521 -24.77403259 68.45584488 C-23.58224108 65.07518976 -22.39437796 61.69315472 -21.20605469 58.3112793 C-19.33191168 52.97916091 -17.45517434 47.64796265 -15.57666016 42.31738281 C-13.67564397 36.92166534 -11.78017337 31.52405121 -9.89060974 26.12431335 C-8.76338771 22.90309314 -7.63395413 19.68265196 -6.50387573 16.46243286 C-6.00347656 15.03537456 -5.50389639 13.60802879 -5.00515747 12.1803894 C-4.33428375 10.26123354 -3.65947033 8.34345616 -2.984375 6.42578125 C-2.62053711 5.38848877 -2.25669922 4.35119629 -1.88183594 3.2824707 C-1 1 -1 1 0 0 Z " fill="#FEDF5E" transform="translate(649,38)"/>
<path d="M0 0 C8.6601079 7.22482 15.39895513 15.20917851 17.125 26.625 C17.35089164 38.50044635 13.43737526 48.20218187 8.125 58.625 C3.70029578 57.28217107 -0.13667152 55.5318157 -4.171875 53.28125 C-4.75916885 52.9555603 -5.34646271 52.62987061 -5.95155334 52.29431152 C-7.84538654 51.24261704 -9.73519417 50.1839112 -11.625 49.125 C-12.92641651 48.40057452 -14.22809437 47.67661837 -15.5300293 46.953125 C-18.11252264 45.51702975 -20.69347272 44.07822563 -23.27294922 42.63671875 C-27.29022028 40.39190205 -31.31425378 38.15935557 -35.33886719 35.92773438 C-38.51946048 34.16353003 -41.69739921 32.39458759 -44.875 30.625 C-45.39575367 31.87726164 -45.90369615 33.13485541 -46.40625 34.39453125 C-46.69048828 35.09425049 -46.97472656 35.79396973 -47.26757812 36.51489258 C-48.28819543 40.06038912 -47.36095884 42.34350757 -45.875 45.625 C-42.36717637 50.16453646 -38.4007554 52.39826059 -32.875 53.625 C-28.98929985 53.550275 -27.53289124 53.30282734 -24.8125 50.5 C-23.8534375 49.571875 -23.8534375 49.571875 -22.875 48.625 C-18.8213664 48.97936141 -15.8453861 50.55824152 -12.35546875 52.56640625 C-11.33388672 53.14970703 -10.31230469 53.73300781 -9.25976562 54.33398438 C-8.20466797 54.94564453 -7.14957031 55.55730469 -6.0625 56.1875 C-4.45084961 57.11079102 -4.45084961 57.11079102 -2.80664062 58.05273438 C-0.15912482 59.57064344 2.48451856 61.09489764 5.125 62.625 C1.13554852 70.05788532 -3.20817863 74.4540712 -11.25 77.5 C-25.0168082 81.45354492 -38.08081845 76.1615639 -50.1640625 69.73828125 C-54.81425429 67.15783477 -58.92331911 64.1831525 -62.875 60.625 C-63.49632812 60.10679687 -64.11765625 59.58859375 -64.7578125 59.0546875 C-71.83088464 52.71648 -76.10429104 43.80143752 -77.11328125 34.40625 C-77.56102045 20.64416101 -71.37166389 7.3124831 -62.1875 -2.75 C-43.62627816 -20.11489309 -18.58551803 -13.75520267 0 0 Z M-36.875 14.625 C-37.205 15.285 -37.535 15.945 -37.875 16.625 C-34.11357526 18.8289911 -30.33947871 21.0102886 -26.5625 23.1875 C-25.49064453 23.81591797 -24.41878906 24.44433594 -23.31445312 25.09179688 C-22.28642578 25.68154297 -21.25839844 26.27128906 -20.19921875 26.87890625 C-18.7774231 27.70370483 -18.7774231 27.70370483 -17.3269043 28.54516602 C-14.81627062 29.97862996 -14.81627062 29.97862996 -11.875 28.625 C-10.45858581 23.34563801 -11.16157019 20.35161967 -13.875 15.625 C-18.7052233 11.80107322 -22.60679488 10.27485512 -28.8046875 10.33203125 C-32.16636764 10.8077407 -34.31287683 12.50031249 -36.875 14.625 Z " fill="#FEDF5F" transform="translate(793.875,131.375)"/>
<path d="M0 0 C7.14126281 7.63949045 11.76271451 16.55758367 13.6875 26.875 C13.22070312 29.05297852 13.22070312 29.05297852 12.6875 30.875 C12.01542511 31.04817245 11.34335022 31.22134491 10.65090942 31.39976501 C3.67526321 33.19763895 -3.29956722 34.99865124 -10.27392578 36.80151367 C-12.87912082 37.47478003 -15.48460259 38.14692023 -18.09033203 38.81811523 C-21.82899962 39.7815794 -25.56691319 40.74792071 -29.3046875 41.71484375 C-30.47554901 42.01591537 -31.64641052 42.316987 -32.85275269 42.62718201 C-34.474207 43.0475045 -34.474207 43.0475045 -36.12841797 43.47631836 C-37.08328094 43.72280624 -38.03814392 43.96929413 -39.02194214 44.22325134 C-41.31594047 44.79948754 -41.31594047 44.79948754 -43.3125 45.875 C-41.67146548 49.73463985 -40.23158322 53.05803714 -37.0625 55.875 C-31.42370767 57.92546994 -26.93738906 57.36245562 -21.5 55.1875 C-17.80114094 53.36995719 -15.74592441 51.88858834 -14.3125 47.875 C-14.27546931 45.87534285 -14.2711865 43.87457325 -14.3125 41.875 C-10.06472625 40.70012185 -5.81394326 39.536523 -1.5625 38.375 C-0.3559375 38.04113281 0.850625 37.70726562 2.09375 37.36328125 C3.25390625 37.04746094 4.4140625 36.73164062 5.609375 36.40625 C6.67768555 36.11298828 7.74599609 35.81972656 8.84667969 35.51757812 C11.6875 34.875 11.6875 34.875 15.6875 34.875 C18.08713552 42.07390657 16.78435419 49.16318674 13.6875 55.875 C7.09068921 67.5881492 -5.0343364 72.8510959 -17.296875 76.84765625 C-29.92472591 80.29307242 -45.5271894 81.3508874 -57.3125 74.875 C-67.84153506 68.63146693 -72.92996984 59.42881089 -76.3125 47.875 C-78.97332963 35.7688557 -79.29665583 24.53994898 -72.58203125 13.76171875 C-72.16308594 13.13910156 -71.74414062 12.51648438 -71.3125 11.875 C-70.755625 11.00875 -70.19875 10.1425 -69.625 9.25 C-52.21593988 -8.62957526 -21.00039407 -13.47195092 0 0 Z M-46.25 19.625 C-47.83991806 22.9918853 -48.00384017 26.17108204 -48.3125 29.875 C-42.56816838 29.18319281 -37.09099779 27.91152939 -31.5 26.4375 C-30.64212891 26.22029297 -29.78425781 26.00308594 -28.90039062 25.77929688 C-28.08119141 25.56466797 -27.26199219 25.35003906 -26.41796875 25.12890625 C-25.67699951 24.93627197 -24.93603027 24.7436377 -24.17260742 24.54516602 C-22.10201087 23.94822417 -22.10201087 23.94822417 -20.3125 21.875 C-23.28939688 16.63621372 -23.28939688 16.63621372 -28.3125 13.875 C-35.48653682 13.15759632 -40.84323368 14.74146913 -46.25 19.625 Z " fill="#FEDF5E" transform="translate(315.3125,67.125)"/>
<path d="M0 0 C2.91850706 8.75552117 2.13240259 18.87893242 2 28 C-0.68702966 28.31702641 -3.37453124 28.62861361 -6.0625 28.9375 C-7.16174805 29.06801758 -7.16174805 29.06801758 -8.28320312 29.20117188 C-13.459835 29.79091475 -18.63884297 30.19823527 -23.83764648 30.53344727 C-24.52870232 30.5787281 -25.21975815 30.62400894 -25.93175507 30.67066193 C-27.62111785 30.78124155 -29.31055184 30.89073246 -31 31 C-30.92483154 31.89091843 -30.84966309 32.78183685 -30.7722168 33.69975281 C-30.06376461 42.10094218 -29.35730993 50.50229662 -28.65309143 58.90384197 C-28.290987 63.22301615 -27.92811393 67.54212285 -27.56347656 71.86108398 C-27.21152938 76.03007451 -26.86161132 80.19923085 -26.51309204 84.36850929 C-26.37985295 85.9581489 -26.24588615 87.54772769 -26.11117554 89.13724327 C-25.92244333 91.36567095 -25.73631303 93.59430195 -25.55078125 95.82299805 C-25.44419189 97.09096725 -25.33760254 98.35893646 -25.2277832 99.66532898 C-25.03688472 102.4600198 -24.95302918 105.20084316 -25 108 C-27.52167999 109.26083999 -29.56824635 109.3109201 -32.3828125 109.53515625 C-33.46820313 109.62216797 -34.55359375 109.70917969 -35.671875 109.79882812 C-36.81140625 109.88583984 -37.9509375 109.97285156 -39.125 110.0625 C-40.24132812 110.15337891 -41.35765625 110.24425781 -42.5078125 110.33789062 C-48.3643404 110.79715844 -54.12724772 111.04086566 -60 111 C-60.78474922 101.69892393 -61.56725538 92.39766266 -62.34690857 83.09615803 C-62.709013 78.77698385 -63.07188607 74.45787715 -63.43652344 70.13891602 C-63.78847062 65.96992549 -64.13838868 61.80076915 -64.48690796 57.63149071 C-64.62014705 56.0418511 -64.75411385 54.45227231 -64.88882446 52.86275673 C-65.07755667 50.63432905 -65.26368697 48.40569805 -65.44921875 46.17700195 C-65.60910278 44.27504814 -65.60910278 44.27504814 -65.7722168 42.33467102 C-65.96311528 39.5399802 -66.04697082 36.79915684 -66 34 C-66.60360352 34.06058594 -67.20720703 34.12117188 -67.82910156 34.18359375 C-89.98908797 36.38016122 -89.98908797 36.38016122 -100 36 C-102.81626208 27.55121376 -102.14059671 17.81072745 -102 9 C-99.44746895 8.14915632 -97.60441678 7.79151048 -94.97019958 7.57603455 C-94.15279297 7.50734665 -93.33538635 7.43865875 -92.49320984 7.3678894 C-91.15356926 7.26107346 -91.15356926 7.26107346 -89.78686523 7.15209961 C-88.8435434 7.07392502 -87.90022156 6.99575043 -86.92831421 6.91520691 C-83.80535781 6.65732646 -80.68199402 6.4047866 -77.55859375 6.15234375 C-75.39288391 5.9747134 -73.22719918 5.79677667 -71.0615387 5.61854553 C-66.52143087 5.24564695 -61.98113565 4.87515463 -57.44067383 4.5065918 C-51.61036208 4.0333218 -45.7803806 3.55612829 -39.95051479 3.07739925 C-34.40330808 2.62198669 -28.85596457 2.16825241 -23.30859375 1.71484375 C-22.24440153 1.62777601 -21.18020931 1.54070827 -20.08376884 1.45100212 C-17.08383283 1.20592273 -14.08380485 0.96200541 -11.08374023 0.71850586 C-10.18862228 0.645271 -9.29350433 0.57203613 -8.3712616 0.49658203 C-2.23005921 0 -2.23005921 0 0 0 Z " fill="#FEDE5D" transform="translate(440,15)"/>
<path d="M0 0 C4.45320383 4.10120427 7.65931512 8.65837496 11 13.6875 C15.37696685 20.18269649 19.82526209 26.60707443 24.4375 32.9375 C31.42227606 42.53390951 38.22043308 52.25792035 45 62 C48.43587968 60.7342682 51.28318877 59.28237096 54.265625 57.1640625 C55.06548828 56.59961426 55.86535156 56.03516602 56.68945312 55.45361328 C57.53443359 54.8501709 58.37941406 54.24672852 59.25 53.625 C60.56387695 52.69856689 60.56387695 52.69856689 61.90429688 51.75341797 C66.2757512 48.66736059 70.62467722 45.55230955 74.953125 42.40625 C75.72108398 41.85243652 76.48904297 41.29862305 77.28027344 40.72802734 C78.7323031 39.67941023 80.17855398 38.6227324 81.61816406 37.55712891 C82.27010742 37.08710449 82.92205078 36.61708008 83.59375 36.1328125 C84.15771484 35.71918457 84.72167969 35.30555664 85.30273438 34.87939453 C87 34 87 34 91 34 C92.73925781 35.8359375 92.73925781 35.8359375 94.453125 38.375 C95.071875 39.27734375 95.690625 40.1796875 96.328125 41.109375 C97.27945313 42.54023438 97.27945313 42.54023438 98.25 44 C98.8996875 44.95390625 99.549375 45.9078125 100.21875 46.890625 C101.82480852 49.25247577 103.41773304 51.62217276 105 54 C103.67351872 57.07537761 102.44310023 58.70888009 99.68359375 60.59375 C99.01070313 61.06039062 98.3378125 61.52703125 97.64453125 62.0078125 C96.91621094 62.50023437 96.18789062 62.99265625 95.4375 63.5 C93.88395512 64.57268575 92.33057418 65.64560898 90.77734375 66.71875 C89.98183105 67.26402344 89.18631836 67.80929688 88.36669922 68.37109375 C84.72066963 70.88051292 81.11132246 73.44101413 77.5 76 C76.08353215 77.00028159 74.6668648 78.00028074 73.25 79 C72.54875 79.495 71.8475 79.99 71.125 80.5 C69 82 66.875 83.5 64.75 85 C64.04762207 85.4959668 63.34524414 85.99193359 62.62158203 86.50292969 C61.2169588 87.49408615 59.81169385 88.48433387 58.40576172 89.47363281 C54.67382765 92.10151109 50.95712151 94.7482217 47.2578125 97.421875 C46.48244141 97.97875 45.70707031 98.535625 44.90820312 99.109375 C43.41578743 100.18176951 41.92731487 101.25967866 40.44335938 102.34375 C39.77369141 102.82328125 39.10402344 103.3028125 38.4140625 103.796875 C37.8257666 104.22323242 37.2374707 104.64958984 36.63134766 105.08886719 C35 106 35 106 32 106 C30.25377373 103.78708317 28.71836822 101.60707744 27.1875 99.25 C26.20165234 97.77398321 25.21461722 96.29875903 24.2265625 94.82421875 C23.70352539 94.03837402 23.18048828 93.2525293 22.64160156 92.44287109 C19.84078071 88.27496309 16.94972822 84.17080421 14.0625 80.0625 C13.47057861 79.2180835 12.87865723 78.37366699 12.26879883 77.50366211 C7.02179608 70.0203259 1.75271834 62.55264172 -3.5234375 55.08984375 C-5.03791538 52.9463367 -6.5504729 50.80148642 -8.0625 48.65625 C-8.56990723 47.93671143 -9.07731445 47.21717285 -9.60009766 46.47583008 C-10.60575811 45.04913182 -11.61065834 43.62189734 -12.61474609 42.1940918 C-15.04066258 38.75006333 -17.48578666 35.32326526 -19.9765625 31.92578125 C-20.44433105 31.28406982 -20.91209961 30.6423584 -21.39404297 29.98120117 C-22.2750797 28.77512947 -23.1618269 27.57320126 -24.05517578 26.3762207 C-27 22.33455616 -27 22.33455616 -27 19 C-25.27514648 17.45361328 -25.27514648 17.45361328 -22.87109375 15.8203125 C-22.00033203 15.22089844 -21.12957031 14.62148437 -20.23242188 14.00390625 C-19.31009766 13.38386719 -18.38777344 12.76382813 -17.4375 12.125 C-15.64440544 10.89862143 -13.85143447 9.67206212 -12.05859375 8.4453125 C-11.19862793 7.86168945 -10.33866211 7.27806641 -9.45263672 6.67675781 C-6.26643667 4.49849562 -3.12984741 2.25829868 0 0 Z " fill="#FEDF5F" transform="translate(30,151)"/>
<path d="M0 0 C7.83860685 6.98550926 11.09185822 13.96861726 11.984375 24.3515625 C12.00027033 27.04582164 11.62301909 29.38520776 11 32 C0.83525606 30.87791788 -9.03151427 29.33636384 -19 27 C-19.08636719 26.32453125 -19.17273438 25.6490625 -19.26171875 24.953125 C-20.11982721 19.1387569 -20.11982721 19.1387569 -23.4375 14.4375 C-28.51621415 11.58846523 -33.29492722 11.36103185 -39 12 C-42.97798607 14.11595004 -44.78364569 16.66934028 -46.375 20.8828125 C-48.68048415 28.69264004 -50.62383015 37.47036852 -47.8125 45.3125 C-45.17499691 49.22328045 -43.0920871 50.58797063 -38.44140625 51.50390625 C-34.14799641 52.05733086 -30.76181945 52.20776894 -26.5625 51.0625 C-23.97241839 48.97780017 -23.22832821 47.79251222 -21.83984375 44.87109375 C-21.31765259 43.78526001 -21.31765259 43.78526001 -20.78491211 42.67749023 C-20.52589111 42.12391846 -20.26687012 41.57034668 -20 41 C-15.89517579 41.6416993 -11.79126508 42.28906473 -7.6875 42.9375 C-5.93663086 43.21110352 -5.93663086 43.21110352 -4.15039062 43.49023438 C-3.03212891 43.66748047 -1.91386719 43.84472656 -0.76171875 44.02734375 C0.26993408 44.18968506 1.30158691 44.35202637 2.36450195 44.51928711 C5 45 5 45 8 46 C7.39099581 54.52605871 5.16108549 60.23794962 -1.0625 66.25 C-7.63550352 71.76179373 -15.48292506 74.38057637 -24 75 C-24.68835938 75.0515625 -25.37671875 75.103125 -26.0859375 75.15625 C-42.66945779 75.81738702 -59.4437244 70.74614282 -71.6796875 59.44921875 C-79.35862133 51.44555389 -80.58993786 41.85417921 -80.47265625 31.20458984 C-79.98733024 17.88186325 -76.02378129 6.45667958 -66.1875 -2.8125 C-48.1610341 -17.69642108 -17.88433096 -12.4700335 0 0 Z " fill="#FEDF5F" transform="translate(595,60)"/>
<path d="M0 0 C6.68364774 4.26203624 12.87987207 8.96590729 19 14 C15.40878958 20.87014167 10.70778149 26.87384845 6 33 C8.79486134 35.87209412 11.50513106 38.542737 14.8125 40.8125 C15.864375 41.534375 16.91625 42.25625 18 43 C16.46906512 47.67199091 13.89242605 51.02170005 10.875 54.8125 C10.17310547 55.7087207 10.17310547 55.7087207 9.45703125 56.62304688 C8.30994435 58.08616792 7.15568766 59.54366297 6 61 C2.65291949 59.45158425 -0.24667512 57.50894136 -3.25 55.375 C-4.14203125 54.74335938 -5.0340625 54.11171875 -5.953125 53.4609375 C-6.62859375 52.97882813 -7.3040625 52.49671875 -8 52 C-13.02807367 57.95110168 -17.85889762 64.01038689 -22.4375 70.3125 C-22.86208496 70.88629395 -23.28666992 71.46008789 -23.72412109 72.05126953 C-26.23812192 75.55787949 -28.04443754 78.77509176 -29 83 C-26.57478112 87.24413305 -23.11191766 89.4767778 -19 92 C-20.44202476 96.15151338 -22.5010438 99.29978445 -25.125 102.8125 C-25.84945312 103.78832031 -26.57390625 104.76414062 -27.3203125 105.76953125 C-27.87460937 106.50558594 -28.42890625 107.24164063 -29 108 C-40.11934265 106.24641191 -50.98652008 98.06843998 -58.0234375 89.55078125 C-61.85591602 83.82005632 -63.26898764 78.83213883 -62 72 C-60.0877286 65.37344841 -55.14159409 60.12768904 -50.94921875 54.80859375 C-47.46556337 50.35945788 -44.17243447 45.77543144 -40.875 41.1875 C-40.29435791 40.38006348 -39.71371582 39.57262695 -39.11547852 38.74072266 C-37.7420091 36.82831781 -36.37008917 34.91482731 -35 33 C-35.78375 32.2575 -36.5675 31.515 -37.375 30.75 C-40 28 -40 28 -42 24 C-38.04 18.72 -34.08 13.44 -30 8 C-27.75390625 9.5625 -25.5078125 11.125 -23.26171875 12.6875 C-21.00336982 14.25095964 -21.00336982 14.25095964 -18 14 C-16.1419957 12.81721309 -16.1419957 12.81721309 -14.27734375 11.19140625 C-13.57416016 10.60939453 -12.87097656 10.02738281 -12.14648438 9.42773438 C-11.05303711 8.50444336 -11.05303711 8.50444336 -9.9375 7.5625 C-8.48954128 6.3539575 -7.04037872 5.14685542 -5.58984375 3.94140625 C-4.94909912 3.40201416 -4.30835449 2.86262207 -3.64819336 2.30688477 C-2 1 -2 1 0 0 Z " fill="#FEDF5F" transform="translate(869,153)"/>
<path d="M0 0 C2.36290557 2.13731198 3.62888368 3.99661415 4.82421875 6.94140625 C5.13037109 7.68970703 5.43652344 8.43800781 5.75195312 9.20898438 C6.21504883 10.37397461 6.21504883 10.37397461 6.6875 11.5625 C7.00783203 12.34302734 7.32816406 13.12355469 7.65820312 13.92773438 C10 19.71481876 10 19.71481876 10 22 C10.97582031 21.55527344 11.95164063 21.11054687 12.95703125 20.65234375 C14.24196157 20.08022149 15.5271304 19.50863467 16.8125 18.9375 C17.77639648 18.49567383 17.77639648 18.49567383 18.75976562 18.04492188 C23.66015625 15.88671875 23.66015625 15.88671875 27 17 C27.99902344 18.62646484 27.99902344 18.62646484 28.859375 20.7109375 C29.17003906 21.46117188 29.48070312 22.21140625 29.80078125 22.984375 C30.11402344 23.77328125 30.42726562 24.5621875 30.75 25.375 C31.24306641 26.54675781 31.24306641 26.54675781 31.74609375 27.7421875 C34.12881877 33.61354368 34.12881877 33.61354368 33 37 C30.34765625 38.38671875 30.34765625 38.38671875 27.0625 39.6875 C25.98097656 40.12449219 24.89945313 40.56148437 23.78515625 41.01171875 C21 42 21 42 19 42 C20.78692523 46.36393566 22.5836135 50.72367092 24.3894043 55.07983398 C25.00212185 56.56179696 25.61217356 58.04486508 26.21948242 59.52905273 C27.09372842 61.66427169 27.97753704 63.7953108 28.86328125 65.92578125 C29.13215652 66.58838455 29.4010318 67.25098785 29.67805481 67.93367004 C31.54754113 72.56569527 31.54754113 72.56569527 35 76 C40.26759802 75.7366201 44.9826972 74.56790713 50 73 C55.37129841 84.52164009 55.37129841 84.52164009 57 90 C46.14778576 99.00095416 34.32133272 104.6229114 20.08984375 104.296875 C15.6976082 103.87486501 13.18600607 103.03066263 10 100 C3.87471667 91.73711554 0.42391187 81.83975137 -3.375 72.375 C-4.02137789 70.78224445 -4.66850784 69.18979389 -5.31640625 67.59765625 C-6.88628873 63.73522906 -8.44596415 59.86882868 -10 56 C-10.75667969 56.15339844 -11.51335937 56.30679688 -12.29296875 56.46484375 C-15.18679479 57.03692769 -18.08864902 57.52605914 -21 58 C-27.51936219 44.3667426 -27.51936219 44.3667426 -29 38 C-28.28972656 37.72285156 -27.57945312 37.44570312 -26.84765625 37.16015625 C-25.46900391 36.61681641 -25.46900391 36.61681641 -24.0625 36.0625 C-23.14597656 35.70285156 -22.22945312 35.34320313 -21.28515625 34.97265625 C-19.07581467 34.2003782 -19.07581467 34.2003782 -18 33 C-18.12492066 31.21210839 -18.32599004 29.42943607 -18.55859375 27.65234375 C-18.69716797 26.57275391 -18.83574219 25.49316406 -18.97851562 24.38085938 C-19.12998047 23.24455078 -19.28144531 22.10824219 -19.4375 20.9375 C-19.65889648 19.22723633 -19.65889648 19.22723633 -19.88476562 17.48242188 C-20.25159707 14.65426979 -20.62356552 11.82688728 -21 9 C-14.08190028 5.74132193 -7.21480664 2.54640234 0 0 Z " fill="#FEDF5F" transform="translate(184,67)"/>
<path d="M0 0 C53.13 0 106.26 0 161 0 C161 7.59 161 15.18 161 23 C107.87 23 54.74 23 0 23 C0 15.41 0 7.82 0 0 Z " fill="#FEE067" transform="translate(340,457)"/>
<path d="M0 0 C53.13 0 106.26 0 161 0 C161 7.26 161 14.52 161 22 C107.87 22 54.74 22 0 22 C0 14.74 0 7.48 0 0 Z " fill="#FEDF61" transform="translate(340,415)"/>
<path d="M0 0 C53.13 0 106.26 0 161 0 C161 7.26 161 14.52 161 22 C107.87 22 54.74 22 0 22 C0 14.74 0 7.48 0 0 Z " fill="#FEDF61" transform="translate(340,373)"/>
<path d="M0 0 C0.46672119 0.88333008 0.93344238 1.76666016 1.41430664 2.67675781 C9.70404287 18.36325927 18.00247601 34.04499126 26.375 49.6875 C26.98609619 50.83057617 27.59719238 51.97365234 28.22680664 53.15136719 C30.55946706 57.50338969 32.88561377 61.84029858 35.4140625 66.08203125 C37 69 37 69 37 72 C33.27290256 73.96229016 29.54297112 75.91913212 25.8125 77.875 C24.22985352 78.70837891 24.22985352 78.70837891 22.61523438 79.55859375 C21.59365234 80.09355469 20.57207031 80.62851563 19.51953125 81.1796875 C18.11344604 81.91807861 18.11344604 81.91807861 16.67895508 82.67138672 C14.15822574 83.9215288 11.62705595 84.9958438 9 86 C8.4126709 84.8550708 8.4126709 84.8550708 7.81347656 83.68701172 C1.2221248 70.8525378 -5.3680112 58.02314898 -12.3125 45.375 C-12.78993652 44.50166016 -13.26737305 43.62832031 -13.75927734 42.72851562 C-15.66714937 39.24110608 -17.57790854 35.75582239 -19.51611328 32.28515625 C-20.98305781 29.65587863 -22.43037367 27.01658793 -23.875 24.375 C-24.32270752 23.58657715 -24.77041504 22.7981543 -25.23168945 21.98583984 C-25.62702881 21.25574707 -26.02236816 20.5256543 -26.4296875 19.7734375 C-26.78272949 19.13841309 -27.13577148 18.50338867 -27.49951172 17.84912109 C-28 16 -28 16 -27.41821289 13.95263672 C-25.5624965 11.39763247 -23.68163102 10.43010036 -20.87890625 8.984375 C-19.86119141 8.45585938 -18.84347656 7.92734375 -17.79492188 7.3828125 C-16.72822266 6.84398438 -15.66152344 6.30515625 -14.5625 5.75 C-13.49966797 5.19570312 -12.43683594 4.64140625 -11.34179688 4.0703125 C-3.41671798 0 -3.41671798 0 0 0 Z " fill="#FEDF5F" transform="translate(137,116)"/>
<path d="M0 0 C4.22941329 0.13917549 8.45845778 0.28750221 12.6875 0.4375 C13.88568359 0.47681641 15.08386719 0.51613281 16.31835938 0.55664062 C17.47529297 0.59853516 18.63222656 0.64042969 19.82421875 0.68359375 C21.41882935 0.73858032 21.41882935 0.73858032 23.0456543 0.79467773 C25.78204532 0.9848525 28.32856732 1.3931507 31 2 C31.25347875 18.78944655 30.50591498 35.49451138 29.60931396 52.25567627 C29.42434533 55.73599893 29.24562625 59.21664299 29.06640625 62.69726562 C28.71748084 69.46521534 28.35854167 76.23252595 28 83 C17.77 82.67 7.54 82.34 -3 82 C-4.21594277 78.35217169 -3.95895337 75.18245298 -3.74633789 71.4074707 C-3.68803551 70.25101547 -3.68803551 70.25101547 -3.6285553 69.07119751 C-3.49870024 66.52241189 -3.36071014 63.97413484 -3.22265625 61.42578125 C-3.13104537 59.65889531 -3.03994171 57.89198301 -2.94932556 56.12504578 C-2.70942872 51.47395693 -2.46263326 46.82325869 -2.2144165 42.17260742 C-1.96235767 37.42713661 -1.71680124 32.68132988 -1.47070312 27.93554688 C-0.98684483 18.62335693 -0.49570049 9.31156655 0 0 Z " fill="#FEDF5E" transform="translate(466,41)"/>
<path d="M0 0 C3.36908514 3.24540876 5.60321024 6.3900401 7.875 10.5 C8.83019531 12.18609375 8.83019531 12.18609375 9.8046875 13.90625 C11 17 11 17 10.39257812 19.00268555 C7.45710188 23.2129119 2.09071496 25.02815673 -2.375 27.3125 C-3.42945312 27.87517578 -4.48390625 28.43785156 -5.5703125 29.01757812 C-6.58609375 29.54416016 -7.601875 30.07074219 -8.6484375 30.61328125 C-9.57833496 31.09579346 -10.50823242 31.57830566 -11.46630859 32.07543945 C-14 33 -14 33 -16.19848633 32.8515625 C-19.48484528 31.29812436 -20.72217362 27.79546873 -22.3125 24.6875 C-22.68439453 24.01009766 -23.05628906 23.33269531 -23.43945312 22.63476562 C-26.02042602 17.71794016 -26.02042602 17.71794016 -25.94238281 14.97485352 C-24.50528279 11.96327266 -22.37880442 11.24563036 -19.43359375 9.765625 C-17.7465332 8.90517578 -17.7465332 8.90517578 -16.02539062 8.02734375 C-14.82957526 7.4345968 -13.63360972 6.84215274 -12.4375 6.25 C-11.23699022 5.64319158 -10.03711156 5.03513283 -8.83789062 4.42578125 C-5.89791487 2.93808268 -2.95205775 1.46353758 0 0 Z " fill="#FEE064" transform="translate(121,89)"/>
<path d="M0 0 C3.66689972 0.14030583 7.33345412 0.28825421 11 0.4375 C12.02996094 0.47681641 13.05992187 0.51613281 14.12109375 0.55664062 C15.13300781 0.59853516 16.14492188 0.64042969 17.1875 0.68359375 C18.57001953 0.73858032 18.57001953 0.73858032 19.98046875 0.79467773 C23.6670406 1.04535747 27.33344902 1.54168113 31 2 C30.67 8.93 30.34 15.86 30 23 C9.27107062 23.14806378 9.27107062 23.14806378 -1 22 C-1.0270817 19.27076612 -1.04687847 16.54180363 -1.0625 13.8125 C-1.07087891 13.04357422 -1.07925781 12.27464844 -1.08789062 11.48242188 C-1.09111328 10.73154297 -1.09433594 9.98066406 -1.09765625 9.20703125 C-1.10289307 8.5210083 -1.10812988 7.83498535 -1.11352539 7.12817383 C-0.98303826 4.6820313 -0.52748836 2.38921201 0 0 Z " fill="#FEDF61" transform="translate(468,11)"/>
<path d="M0 0 C-1.55603771 3.81936528 -3.95604931 6.26044438 -7 9 C-7.66 9 -8.32 9 -9 9 C-9.33 9.66 -9.66 10.32 -10 11 C-9.42429187 7.11397015 -7.58424279 4.88827136 -5 2 C-2 0 -2 0 0 0 Z " fill="#FEEDA8" transform="translate(279,441)"/>
<path d="M0 0 C0.66 0.33 1.32 0.66 2 1 C0.90344712 2.31886772 -0.20253423 3.62990057 -1.3125 4.9375 C-1.92738281 5.66839844 -2.54226563 6.39929688 -3.17578125 7.15234375 C-5 9 -5 9 -8 10 C-6.44303593 6.17836093 -3.96591316 3.81381505 -1 1 C-0.67 0.67 -0.34 0.34 0 0 Z " fill="#FEECA2" transform="translate(596,399)"/>
<path d="M0 0 C-1.55603771 3.81936528 -3.95604931 6.26044438 -7 9 C-7.66 9 -8.32 9 -9 9 C-8.34 7.35 -7.68 5.7 -7 4 C-6.34 4 -5.68 4 -5 4 C-4.67 3.01 -4.34 2.02 -4 1 C-2 0 -2 0 0 0 Z " fill="#FEECA1" transform="translate(279,327)"/>
<path d="M0 0 C0.66 0.33 1.32 0.66 2 1 C-1.63 4.63 -5.26 8.26 -9 12 C-9 8.00102358 -7.64683965 6.93298448 -5 4 C-3.36643049 2.62631655 -1.7074998 1.28062485 0 0 Z " fill="#FEE890" transform="translate(253,70)"/>
</svg>
