<?xml version="1.0" encoding="UTF-8"?>
<svg version="1.1" xmlns="http://www.w3.org/2000/svg" width="407" height="387">
<path d="M0 0 C0.72638672 -0.04576172 1.45277344 -0.09152344 2.20117188 -0.13867188 C10.52881855 -0.30802278 16.17379592 4.62063435 22.0168457 10.12866211 C23.39031616 11.48266337 24.75554483 12.84506555 26.11328125 14.21484375 C26.84572556 14.94441788 27.57816986 15.673992 28.33280945 16.42567444 C29.86659054 17.95742874 31.39664895 19.49291907 32.9230957 21.03198242 C35.25079577 23.37580128 37.59414594 25.70311104 39.93945312 28.02929688 C41.43585902 29.52768454 42.93133438 31.0270022 44.42578125 32.52734375 C45.12061111 33.21610092 45.81544098 33.90485809 46.53132629 34.61448669 C54.33026667 42.52665354 57.13994657 48.69112545 57.1171875 59.8203125 C56.96401793 62.90368252 56.57697385 65.42443896 55.75 68.375 C54.93570887 71.47623644 54.89336015 73.30524722 56.0625 76.3125 C58.3078659 80.17069178 58.3078659 80.17069178 61.9375 82.4375 C66.29355434 82.79455363 69.23720387 82.63758461 73.4375 81.4375 C80.69543802 79.36380342 87.23464484 80.07302924 93.9375 83.4375 C102.11505863 89.8555217 109.42940186 97.64849313 116.80737305 104.95727539 C118.10610738 106.23936138 119.41019586 107.51604551 120.71948242 108.78735352 C136.56201108 124.17560196 136.56201108 124.17560196 138.56640625 134.7578125 C138.4092408 141.39574149 137.43343559 145.75660466 133.9375 151.4375 C135.236875 151.499375 136.53625 151.56125 137.875 151.625 C143.34543853 152.19809356 147.36629088 154.5089003 151.9375 157.4375 C151.9375 158.0975 151.9375 158.7575 151.9375 159.4375 C152.5975 159.4375 153.2575 159.4375 153.9375 159.4375 C159.35918496 166.89415239 159.67277908 173.54541839 159.6015625 182.5625 C159.60493947 183.91813592 159.60979938 185.27376886 159.61605835 186.62939453 C159.62338862 189.45700181 159.61285135 192.28381404 159.58935547 195.11132812 C159.56086754 198.71260885 159.57729268 202.31202596 159.60721779 205.91323853 C159.62539694 208.70855426 159.61948497 211.50343741 159.60657883 214.29876709 C159.60168218 216.26445749 159.61670815 218.23016559 159.63223267 220.19580078 C159.53239461 227.87050881 158.49444436 233.17015871 153.9375 239.4375 C153.2775 239.4375 152.6175 239.4375 151.9375 239.4375 C151.9375 240.0975 151.9375 240.7575 151.9375 241.4375 C148.97373538 243.22035376 145.92254403 244.79296093 142.85546875 246.390625 C139.44396538 248.78370099 138.32691956 250.53720082 136.9375 254.4375 C136.78186859 256.96390997 136.78186859 256.96390997 137.25 259.3125 C137.36988281 260.09367187 137.48976563 260.87484375 137.61328125 261.6796875 C137.77376953 262.54980469 137.77376953 262.54980469 137.9375 263.4375 C138.5975 263.4375 139.2575 263.4375 139.9375 263.4375 C139.9375 264.0975 139.9375 264.7575 139.9375 265.4375 C140.66839844 265.71207031 141.39929688 265.98664063 142.15234375 266.26953125 C149.55563006 269.37413519 154.55944708 273.11838533 157.9375 280.4375 C158.2675 281.0975 158.5975 281.7575 158.9375 282.4375 C159.05428942 284.36024105 159.10721706 286.28698918 159.13037109 288.21313477 C159.15446548 290.03126427 159.15446548 290.03126427 159.17904663 291.88612366 C159.22350066 297.4518314 159.26503078 303.01740864 159.28759766 308.58325195 C159.30089196 311.51553864 159.32865704 314.44712195 159.36962891 317.37915039 C159.41921937 320.92826683 159.44375155 324.47674939 159.45082474 328.02619743 C159.4607225 330.02303009 159.4949088 332.01969535 159.52963257 334.01625061 C159.51171385 341.77559219 158.58286148 347.11530238 153.9375 353.4375 C153.2775 353.4375 152.6175 353.4375 151.9375 353.4375 C151.9375 354.0975 151.9375 354.7575 151.9375 355.4375 C144.60268746 360.69396698 138.31018137 361.15174366 129.46362305 361.07241821 C128.10932463 361.07818727 126.75503406 361.08613364 125.4007597 361.09605443 C121.69853777 361.11684407 117.99696384 361.10664916 114.2947402 361.09112334 C110.29464518 361.07978114 106.29465931 361.09728671 102.29458618 361.11102295 C94.46607983 361.13322939 86.63781347 361.12846579 78.8092978 361.11395974 C72.44562963 361.10265727 66.08202861 361.10114096 59.71835327 361.10657883 C58.35860241 361.10772807 58.35860241 361.10772807 56.97138184 361.10890054 C55.12971121 361.1104992 53.2880406 361.11212027 51.44637001 361.1137635 C34.18629437 361.1280134 16.92635163 361.11164019 -0.33370221 361.08476166 C-15.13627165 361.06242357 -29.93864503 361.06630391 -44.74121094 361.08935547 C-61.94048254 361.11612689 -79.13963774 361.12664017 -96.33892727 361.11129415 C-98.17373592 361.10970144 -100.00854459 361.10812959 -101.84335327 361.10657883 C-102.74606014 361.10580745 -103.64876701 361.10503607 -104.57882863 361.10424132 C-110.93316562 361.09992835 -117.28742862 361.10720219 -123.64175415 361.11897659 C-131.38802946 361.13301504 -139.13405152 361.12917346 -146.8802979 361.10257287 C-150.83088697 361.08945266 -154.78105413 361.08425127 -158.73163986 361.10081863 C-162.35147365 361.1157691 -165.97049636 361.10744758 -169.59025705 361.08093087 C-171.51282088 361.07274112 -173.43544145 361.08897829 -175.35794544 361.10621703 C-182.84992686 361.02163478 -187.92808918 359.83370341 -194.0625 355.4375 C-194.0625 354.7775 -194.0625 354.1175 -194.0625 353.4375 C-194.7225 353.4375 -195.3825 353.4375 -196.0625 353.4375 C-201.53153081 345.95196242 -201.77128094 339.264128 -201.65625 330.20703125 C-201.65453513 328.84421393 -201.6546084 327.48139331 -201.65637207 326.11857605 C-201.6547281 323.27835033 -201.63619717 320.43892281 -201.60449219 317.59887695 C-201.56470231 313.97075386 -201.56046568 310.34366742 -201.56795502 306.71536732 C-201.57103271 303.90734978 -201.55887792 301.09956248 -201.54182434 298.29160118 C-201.5314487 296.30752764 -201.53094777 294.32341033 -201.53063965 292.33930969 C-201.50677185 290.52163338 -201.50677185 290.52163338 -201.48242188 288.66723633 C-201.47400269 287.6062825 -201.4655835 286.54532867 -201.45690918 285.45222473 C-200.7355107 279.93810905 -197.89952743 275.37291274 -194.0625 271.4375 C-185.26915083 265.4375 -185.26915083 265.4375 -182.0625 265.4375 C-182.0625 264.7775 -182.0625 264.1175 -182.0625 263.4375 C-181.4025 263.4375 -180.7425 263.4375 -180.0625 263.4375 C-179.15819497 258.75155574 -178.42025009 254.6623604 -180.5625 250.171875 C-183.49329366 246.78314483 -187.61432286 244.95452659 -191.54296875 242.91796875 C-192.37441406 242.42941406 -193.20585937 241.94085938 -194.0625 241.4375 C-194.0625 240.7775 -194.0625 240.1175 -194.0625 239.4375 C-194.7225 239.4375 -195.3825 239.4375 -196.0625 239.4375 C-201.48418496 231.98084761 -201.79777908 225.32958161 -201.7265625 216.3125 C-201.72993947 214.95686408 -201.73479938 213.60123114 -201.74105835 212.24560547 C-201.74838862 209.41799819 -201.73785135 206.59118596 -201.71435547 203.76367188 C-201.68586754 200.16239115 -201.70229268 196.56297404 -201.73221779 192.96176147 C-201.75039694 190.16644574 -201.74448497 187.37156259 -201.73157883 184.57623291 C-201.72668218 182.61054251 -201.74170815 180.64483441 -201.75723267 178.67919922 C-201.65739461 171.00449119 -200.61944436 165.70484129 -196.0625 159.4375 C-195.4025 159.4375 -194.7425 159.4375 -194.0625 159.4375 C-193.7325 158.4475 -193.4025 157.4575 -193.0625 156.4375 C-188.18112732 152.56965897 -183.35356714 152.15616254 -177.33987433 152.4178564 C-168.29464987 152.77576024 -161.76542069 151.98664195 -154.92127991 145.80143738 C-152.27588085 143.28116015 -149.77486459 140.64743335 -147.27368164 137.98510742 C-145.84794463 136.54850895 -144.41750165 135.11656818 -142.98280334 133.68891907 C-139.13386894 129.83325143 -135.35267259 125.91698072 -131.58070683 121.98618484 C-127.60871055 117.87073232 -123.5749406 113.81673962 -119.54722595 109.75593567 C-111.93844954 102.06667971 -104.38350742 94.32680827 -96.84801525 86.56578952 C-85.7803056 75.17191238 -74.62981971 63.85948687 -63.48289394 52.54319477 C-61.83591753 50.87090705 -60.1889855 49.19857561 -58.542099 47.52619934 C-57.7379169 46.70971194 -56.9337348 45.89322454 -56.10518354 45.0519951 C-51.33644886 40.20682561 -46.58211879 35.34806046 -41.84054959 30.47630537 C-38.89313471 27.44907256 -35.94010572 24.42735153 -32.98641014 21.40624809 C-31.62064435 20.00616584 -30.25764689 18.60337683 -28.89766693 17.1976738 C-27.03846062 15.27628761 -25.16987222 13.36449826 -23.29896545 11.45451355 C-22.76628353 10.89876858 -22.2336016 10.34302362 -21.6847778 9.7704379 C-15.34189388 3.34059448 -9.05572277 0.22465009 0 0 Z M-3.06207275 23.83580017 C-3.76378601 24.54861649 -4.46549927 25.2614328 -5.18847656 25.99584961 C-5.98900452 26.79675522 -6.78953247 27.59766083 -7.61431885 28.4228363 C-8.46862488 29.30294876 -9.32293091 30.18306122 -10.203125 31.08984375 C-11.08530701 31.97910049 -11.96748901 32.86835724 -12.87640381 33.78456116 C-15.22001513 36.15146017 -17.55220455 38.52857584 -19.87963867 40.91131592 C-22.2570203 43.33983818 -24.64861328 45.75427356 -27.0390625 48.16992188 C-31.72678666 52.91287064 -36.39996397 57.66979506 -41.0625 62.4375 C-29.39119356 76.13175326 -17.27495879 89.41581995 -4.90200043 102.47798824 C-0.27425483 107.37065143 4.28599132 112.30146629 8.73193359 117.3605957 C31.23514514 143.70915637 31.23514514 143.70915637 62.66015625 155.10595703 C84.08982717 156.84856416 84.08982717 156.84856416 103.72446442 151.00048733 C105.14187159 149.50391545 105.14187159 149.50391545 104.9375 147.4375 C105.5975 147.4375 106.2575 147.4375 106.9375 147.4375 C106.9375 146.7775 106.9375 146.1175 106.9375 145.4375 C107.5975 145.4375 108.2575 145.4375 108.9375 145.4375 C110.60416667 144.10416667 110.60416667 144.10416667 111.9375 142.4375 C111.9375 141.7775 111.9375 141.1175 111.9375 140.4375 C112.5975 140.4375 113.2575 140.4375 113.9375 140.4375 C114.68724807 138.61649339 114.68724807 138.61649339 114.9375 136.4375 C113.95777817 134.64590805 113.95777817 134.64590805 112.2734375 133.00390625 C111.62342773 132.3092627 110.97341797 131.61461914 110.30371094 130.89892578 C109.13243652 129.68052002 109.13243652 129.68052002 107.9375 128.4375 C107.00914787 127.4375129 106.08248878 126.43595227 105.15722656 125.43310547 C102.54888403 122.61848364 99.89645527 119.85031732 97.22265625 117.09790039 C96.10951735 115.94269139 95.00636138 114.77778483 93.91308594 113.60375977 C88.0400873 106.78101058 88.0400873 106.78101058 80.31274414 102.89208984 C78.00192664 103.13890167 76.109605 103.6300907 73.9375 104.4375 C64.47678267 105.94674294 54.86860456 105.12499781 46.58984375 99.78125 C38.12766015 92.89947421 33.48595915 84.83570384 32 74.0625 C31.59781301 68.69747734 32.94715044 64.41337391 34.9296875 59.45703125 C34.94064827 55.22069534 33.19193215 53.81271389 30.33007812 50.82641602 C29.14575195 49.64390259 29.14575195 49.64390259 27.9375 48.4375 C26.98209573 47.45071122 26.02842672 46.46224044 25.07617188 45.47241211 C22.39091898 42.69312137 19.67589591 39.94515951 16.94799805 37.20776367 C15.23608839 35.48600838 13.53513073 33.75386681 11.83398438 32.02148438 C10.74024048 30.92122135 9.64586229 29.82158843 8.55078125 28.72265625 C7.79442131 27.94777611 7.79442131 27.94777611 7.02278137 27.15724182 C2.50164301 22.43968562 2.50164301 22.43968562 -3.06207275 23.83580017 Z M-59.43304634 80.55915737 C-59.96215551 81.08881131 -60.49126469 81.61846525 -61.03640747 82.16416931 C-61.64497589 82.76854324 -62.25354431 83.37291718 -62.8805542 83.99560547 C-63.87964813 85.00312866 -63.87964813 85.00312866 -64.89892578 86.03100586 C-65.60147491 86.73165665 -66.30402405 87.43230743 -67.02786255 88.15419006 C-69.35943378 90.48204273 -71.68370362 92.81704249 -74.0078125 95.15234375 C-75.61884755 96.76457003 -77.23025146 98.3764278 -78.8420105 99.9879303 C-82.22281215 103.37029866 -85.60021857 106.75600946 -88.97509766 110.14428711 C-93.31265688 114.4988432 -97.6567768 118.84678052 -102.00322151 123.19246578 C-105.33193933 126.52145483 -108.65804958 129.85303863 -111.98327255 133.18551826 C-113.58474123 134.79018085 -115.18682667 136.39422813 -116.78952408 137.9976635 C-119.02383825 140.23413324 -121.2548352 142.47385719 -123.48486328 144.71459961 C-124.49002991 145.71908646 -124.49002991 145.71908646 -125.51550293 146.74386597 C-128.58550838 149.21267182 -128.58550838 149.21267182 -130.0625 152.4375 C-82.2125 152.4375 -34.3625 152.4375 14.9375 152.4375 C14.6075 151.4475 14.2775 150.4575 13.9375 149.4375 C13.2775 149.4375 12.6175 149.4375 11.9375 149.4375 C11.9375 148.7775 11.9375 148.1175 11.9375 147.4375 C11.2775 147.4375 10.6175 147.4375 9.9375 147.4375 C9.6075 146.4475 9.2775 145.4575 8.9375 144.4375 C8.2775 144.4375 7.6175 144.4375 6.9375 144.4375 C6.9375 143.7775 6.9375 143.1175 6.9375 142.4375 C6.2775 142.4375 5.6175 142.4375 4.9375 142.4375 C4.9375 141.7775 4.9375 141.1175 4.9375 140.4375 C4.2775 140.4375 3.6175 140.4375 2.9375 140.4375 C2.6075 139.4475 2.2775 138.4575 1.9375 137.4375 C1.2775 137.4375 0.6175 137.4375 -0.0625 137.4375 C-0.0625 136.7775 -0.0625 136.1175 -0.0625 135.4375 C-0.7225 135.4375 -1.3825 135.4375 -2.0625 135.4375 C-2.0625 134.7775 -2.0625 134.1175 -2.0625 133.4375 C-2.7225 133.4375 -3.3825 133.4375 -4.0625 133.4375 C-4.3925 132.4475 -4.7225 131.4575 -5.0625 130.4375 C-5.7225 130.4375 -6.3825 130.4375 -7.0625 130.4375 C-7.0625 129.7775 -7.0625 129.1175 -7.0625 128.4375 C-7.7225 128.4375 -8.3825 128.4375 -9.0625 128.4375 C-9.4646875 127.4784375 -9.4646875 127.4784375 -9.875 126.5 C-10.94917752 124.10618314 -10.94917752 124.10618314 -14.0625 123.4375 C-14.0625 122.7775 -14.0625 122.1175 -14.0625 121.4375 C-14.7225 121.4375 -15.3825 121.4375 -16.0625 121.4375 C-16.3925 120.4475 -16.7225 119.4575 -17.0625 118.4375 C-17.7225 118.4375 -18.3825 118.4375 -19.0625 118.4375 C-19.0625 117.7775 -19.0625 117.1175 -19.0625 116.4375 C-19.7225 116.4375 -20.3825 116.4375 -21.0625 116.4375 C-21.0625 115.7775 -21.0625 115.1175 -21.0625 114.4375 C-21.7225 114.4375 -22.3825 114.4375 -23.0625 114.4375 C-23.3925 113.4475 -23.7225 112.4575 -24.0625 111.4375 C-24.7225 111.4375 -25.3825 111.4375 -26.0625 111.4375 C-26.0625 110.7775 -26.0625 110.1175 -26.0625 109.4375 C-26.7225 109.4375 -27.3825 109.4375 -28.0625 109.4375 C-28.0625 108.7775 -28.0625 108.1175 -28.0625 107.4375 C-28.7225 107.4375 -29.3825 107.4375 -30.0625 107.4375 C-30.5575 105.9525 -30.5575 105.9525 -31.0625 104.4375 C-31.7225 104.4375 -32.3825 104.4375 -33.0625 104.4375 C-33.0625 103.7775 -33.0625 103.1175 -33.0625 102.4375 C-33.7225 102.4375 -34.3825 102.4375 -35.0625 102.4375 C-35.5575 100.9525 -35.5575 100.9525 -36.0625 99.4375 C-36.7225 99.4375 -37.3825 99.4375 -38.0625 99.4375 C-38.0625 98.7775 -38.0625 98.1175 -38.0625 97.4375 C-38.7225 97.4375 -39.3825 97.4375 -40.0625 97.4375 C-40.0625 96.7775 -40.0625 96.1175 -40.0625 95.4375 C-40.7225 95.4375 -41.3825 95.4375 -42.0625 95.4375 C-42.5575 93.9525 -42.5575 93.9525 -43.0625 92.4375 C-43.7225 92.4375 -44.3825 92.4375 -45.0625 92.4375 C-45.0625 91.7775 -45.0625 91.1175 -45.0625 90.4375 C-45.7225 90.4375 -46.3825 90.4375 -47.0625 90.4375 C-47.0625 89.7775 -47.0625 89.1175 -47.0625 88.4375 C-47.7225 88.4375 -48.3825 88.4375 -49.0625 88.4375 C-49.5575 86.9525 -49.5575 86.9525 -50.0625 85.4375 C-50.7225 85.4375 -51.3825 85.4375 -52.0625 85.4375 C-52.0625 84.7775 -52.0625 84.1175 -52.0625 83.4375 C-52.7225 83.4375 -53.3825 83.4375 -54.0625 83.4375 C-55.0525 81.4575 -55.0525 81.4575 -56.0625 79.4375 C-58.09971206 79.22638677 -58.09971206 79.22638677 -59.43304634 80.55915737 Z M-179.0625 175.4375 C-179.20748801 176.90801179 -179.28514405 178.38525014 -179.3347168 179.86206055 C-179.36691818 180.80361496 -179.39911957 181.74516937 -179.43229675 182.71525574 C-179.54278462 187.04028805 -179.62537149 191.36516457 -179.68725586 195.69116211 C-179.72892992 197.97188466 -179.79031105 200.2523361 -179.87182617 202.53198242 C-179.98746666 205.81784124 -180.03750124 209.09914362 -180.07421875 212.38671875 C-180.12269455 213.40255539 -180.17117035 214.41839203 -180.22111511 215.4650116 C-180.21343647 218.43820963 -180.1009667 220.64706857 -179.0625 223.4375 C-175.23116787 226.90709653 -170.92491033 228.81669656 -166.0625 230.4375 C-165.03125 232.2578125 -165.03125 232.2578125 -164.0625 234.4375 C-162.82867388 236.39105802 -161.55929521 238.31732673 -160.28125 240.2421875 C-157.40331567 245.42615895 -156.67355929 250.39072144 -156.6875 256.25 C-156.68911133 256.95560059 -156.69072266 257.66120117 -156.69238281 258.38818359 C-156.89454267 267.00772515 -160.32087457 272.57031834 -165.0625 279.4375 C-165.3925 280.4275 -165.7225 281.4175 -166.0625 282.4375 C-167.70284193 283.16654086 -169.37551918 283.82405243 -171.0625 284.4375 C-173.81045903 286.0077623 -176.42839335 287.6814289 -179.0625 289.4375 C-179.50660705 291.56568549 -179.50660705 291.56568549 -179.41894531 294.05493164 C-179.42194641 295.01254898 -179.42494751 295.97016632 -179.42803955 296.95680237 C-179.41569275 297.99328415 -179.40334595 299.02976593 -179.390625 300.09765625 C-179.38875183 301.15786484 -179.38687866 302.21807343 -179.38494873 303.31040955 C-179.37821839 305.55405822 -179.36428459 307.79769497 -179.34375 310.04125977 C-179.31259753 313.48920501 -179.30278134 316.93669363 -179.296875 320.38476562 C-179.28770545 322.55990145 -179.27732983 324.73503259 -179.265625 326.91015625 C-179.26137512 327.94866226 -179.25712524 328.98716827 -179.25274658 330.05714417 C-179.24313904 331.01160934 -179.23353149 331.96607452 -179.22363281 332.94946289 C-179.21680481 333.79392471 -179.20997681 334.63838654 -179.20294189 335.50843811 C-179.27332923 337.44463627 -179.27332923 337.44463627 -178.0625 338.4375 C-174.96535742 338.53554809 -171.89049884 338.56740642 -168.79295349 338.55775452 C-167.80796295 338.55860894 -166.8229724 338.55946337 -165.80813366 338.56034368 C-162.48071365 338.56200147 -159.15334316 338.55647225 -155.82592773 338.55102539 C-153.4514262 338.55074356 -151.07692458 338.55090118 -148.7024231 338.5514679 C-142.9065998 338.55172605 -137.11079294 338.54737473 -131.31497341 338.54103024 C-124.57347875 338.5338963 -117.83198647 338.53238635 -111.09048856 338.53124207 C-99.06723954 338.52905123 -87.04399729 338.52239027 -75.02075195 338.51293945 C-63.33846063 338.50376616 -51.65617115 338.49669638 -39.97387695 338.49243164 C-39.24692672 338.49216364 -38.51997649 338.49189565 -37.77099746 338.49161953 C-31.44798151 338.48930681 -25.12496551 338.48715395 -18.8019495 338.48501682 C8.44454004 338.47560026 35.69101164 338.45568183 62.9375 338.4375 C62.9375 284.3175 62.9375 230.1975 62.9375 174.4375 C20.12793061 174.40838662 20.12793061 174.40838662 -22.68164062 174.38867188 C-28.44571943 174.38671387 -34.20979821 174.38469334 -39.97387695 174.38256836 C-41.05759633 174.38217274 -41.05759633 174.38217274 -42.16320902 174.38176912 C-53.84229213 174.37741433 -65.52137034 174.3695275 -77.20045053 174.3603472 C-89.17745649 174.35101092 -101.15445987 174.34544445 -113.13146931 174.34341151 C-119.86250169 174.34215994 -126.59352383 174.33913818 -133.32455254 174.33176994 C-139.65192067 174.32501395 -145.97927304 174.32288217 -152.30664444 174.32439232 C-154.63637058 174.3241158 -156.96609721 174.32210819 -159.29582024 174.31829453 C-162.46155111 174.31336385 -165.62722139 174.31449939 -168.79295349 174.31724548 C-169.72775919 174.31433264 -170.66256489 174.3114198 -171.62569803 174.30841869 C-175.6644972 173.9079142 -175.6644972 173.9079142 -179.0625 175.4375 Z M85.9375 174.4375 C85.9375 228.5575 85.9375 282.6775 85.9375 338.4375 C102.4375 338.4375 118.9375 338.4375 135.9375 338.4375 C137.51882245 336.85617755 137.13599747 335.20909521 137.2097168 333.01293945 C137.25801888 331.60060783 137.25801888 331.60060783 137.30729675 330.15974426 C137.41778462 325.83471195 137.50037149 321.50983543 137.56225586 317.18383789 C137.60392992 314.90311534 137.66531105 312.6226639 137.74682617 310.34301758 C137.86246666 307.05715876 137.91250124 303.77585638 137.94921875 300.48828125 C137.99769455 299.47244461 138.04617035 298.45660797 138.09611511 297.4099884 C138.08843647 294.43679037 137.9759667 292.22793143 136.9375 289.4375 C133.10616787 285.96790347 128.79991033 284.05830344 123.9375 282.4375 C122.90625 280.6171875 122.90625 280.6171875 121.9375 278.4375 C120.70367388 276.48394198 119.43429521 274.55767327 118.15625 272.6328125 C115.27831567 267.44884105 114.54855929 262.48427856 114.5625 256.625 C114.56411133 255.91939941 114.56572266 255.21379883 114.56738281 254.48681641 C114.76954267 245.86727485 118.19587457 240.30468166 122.9375 233.4375 C123.2675 232.4475 123.5975 231.4575 123.9375 230.4375 C125.703125 229.4140625 125.703125 229.4140625 127.9375 228.4375 C129.52503149 227.57014008 131.1083239 226.69498076 132.6875 225.8125 C133.48671875 225.36648437 134.2859375 224.92046875 135.109375 224.4609375 C135.71265625 224.12320313 136.3159375 223.78546875 136.9375 223.4375 C136.9627689 216.61988106 136.98033244 209.80227411 136.99243164 202.98461914 C136.99747333 200.66332549 137.00430651 198.34203503 137.01293945 196.02075195 C137.02501225 192.69221205 137.03072979 189.36371398 137.03515625 186.03515625 C137.04031754 184.99037613 137.04547882 183.94559601 137.05079651 182.86915588 C137.05087204 181.90823532 137.05094757 180.94731476 137.05102539 179.95727539 C137.053246 179.10678116 137.05546661 178.25628693 137.05775452 177.38002014 C137.15230284 175.43161455 137.15230284 175.43161455 135.9375 174.4375 C119.4375 174.4375 102.9375 174.4375 85.9375 174.4375 Z " fill="#FEDF62" transform="translate(222.0625,7.5625)"/>
<path d="M0 0 C53.13 0 106.26 0 161 0 C161 7.59 161 15.18 161 23 C107.87 23 54.74 23 0 23 C0 15.41 0 7.82 0 0 Z " fill="#FEE067" transform="translate(94,293)"/>
<path d="M0 0 C53.13 0 106.26 0 161 0 C161 7.26 161 14.52 161 22 C107.87 22 54.74 22 0 22 C0 14.74 0 7.48 0 0 Z " fill="#FEDF61" transform="translate(94,251)"/>
<path d="M0 0 C53.13 0 106.26 0 161 0 C161 7.26 161 14.52 161 22 C107.87 22 54.74 22 0 22 C0 14.74 0 7.48 0 0 Z " fill="#FEDF61" transform="translate(94,209)"/>
<path d="M0 0 C-1.55603771 3.81936528 -3.95604931 6.26044438 -7 9 C-7.66 9 -8.32 9 -9 9 C-9.33 9.66 -9.66 10.32 -10 11 C-9.42429187 7.11397015 -7.58424279 4.88827136 -5 2 C-2 0 -2 0 0 0 Z " fill="#FEEDA8" transform="translate(33,277)"/>
<path d="M0 0 C0.66 0.33 1.32 0.66 2 1 C0.90344712 2.31886772 -0.20253423 3.62990057 -1.3125 4.9375 C-1.92738281 5.66839844 -2.54226563 6.39929688 -3.17578125 7.15234375 C-5 9 -5 9 -8 10 C-6.44303593 6.17836093 -3.96591316 3.81381505 -1 1 C-0.67 0.67 -0.34 0.34 0 0 Z " fill="#FEECA2" transform="translate(350,235)"/>
<path d="M0 0 C-1.55603771 3.81936528 -3.95604931 6.26044438 -7 9 C-7.66 9 -8.32 9 -9 9 C-8.34 7.35 -7.68 5.7 -7 4 C-6.34 4 -5.68 4 -5 4 C-4.67 3.01 -4.34 2.02 -4 1 C-2 0 -2 0 0 0 Z " fill="#FEECA1" transform="translate(33,163)"/>
</svg>
